# xmcd CD database file
#
# Track frame offsets:
#	150
#	12888
#	25722
#	35676
#	44290
#	59434
#	71972
#	81875
#	92325
#	104089
#	116470
#	129513
#	139889
#	150941
#	162962
#	174058
#	184412
#	196828
#	208648
#	219382
#	230976
#	243420
#	254400
#	265626
#	277455
#	286572
#	298150
#
# Disc length: 4111 seconds
#
# Revision: 0
# Processed by: cddbd v1.5.2PL0 Copyright (c) Steve Scherf et al.
# Submitted via: ACXtractor (MTCDDB.DLL V2003.07.15)
#
DISCID=8e100d1b
DTITLE=Patsy Cline - Best of 
DYEAR=1988
DGENRE=Country
TTITLE0=If I Could See the World
TTITLE1=Lifes Ralway Secrets
TTITLE2=Turn the Cards
TTITLE3=Trying Again
TTITLE4=Why Can't he be You
TTITLE5=Your Stronger than Me
TTITLE6=Stranger
TTITLE7=Secrets
TTITLE8=I've Loved and Lost Again
TTITLE9=He Called Me Baby
TTITLE10=When You Need a Laugh
TTITLE11=Strange
TTITLE12=Leavin' On My Mind
TTITLE13=You'll Love me Too
TTITLE14=Crazy Arms
TTITLE15=I Love You so Much It Hurts
TTITLE16=Always
TTITLE17=Lonely Street
TTITLE18=I Dont Want To
TTITLE19=Let the Teardrops Fall
TTITLE20=Fingertips
TTITLE21=I Can't Forget
TTITLE22=Hungry For Love
TTITLE23=If I Could Only Stay Asleep
TTITLE24=I Love You Honey
TTITLE25=Never No More
TTITLE26=Too Many Secrets
EXTD=ID3G:   2 YEAR: 1988
EXTT0=
EXTT1=
EXTT2=
EXTT3=
EXTT4=
EXTT5=
EXTT6=
EXTT7=
EXTT8=
EXTT9=
EXTT10=
EXTT11=
EXTT12=
EXTT13=
EXTT14=
EXTT15=
EXTT16=
EXTT17=
EXTT18=
EXTT19=
EXTT20=
EXTT21=
EXTT22=
EXTT23=
EXTT24=
EXTT25=
EXTT26=
PLAYORDER=
